<svg width="239" height="72" viewBox="0 0 239 72" fill="none" xmlns="http://www.w3.org/2000/svg">
<rect width="238.33" height="72" rx="24" fill="#2E2F38"/>
<path d="M118.999 47.32C116.61 47.32 114.7 46.392 113.271 44.536C111.842 42.68 111.127 39.9813 111.127 36.44C111.127 32.8987 111.842 30.2 113.271 28.344C114.7 26.488 116.61 25.56 118.999 25.56C121.41 25.56 123.319 26.488 124.727 28.344C126.156 30.2 126.871 32.8987 126.871 36.44C126.871 39.9813 126.156 42.68 124.727 44.536C123.319 46.392 121.41 47.32 118.999 47.32ZM118.999 45.016C120.706 45.016 121.996 44.28 122.871 42.808C123.767 41.336 124.215 39.2133 124.215 36.44C124.215 33.6453 123.767 31.5227 122.871 30.072C121.996 28.6 120.706 27.864 118.999 27.864C117.314 27.864 116.023 28.6 115.127 30.072C114.231 31.5227 113.783 33.6453 113.783 36.44C113.783 39.2133 114.231 41.336 115.127 42.808C116.023 44.28 117.314 45.016 118.999 45.016Z" fill="white"/>
</svg>
