<svg width="69" height="72" viewBox="0 0 69 72" fill="none" xmlns="http://www.w3.org/2000/svg">
<rect width="69" height="72" rx="24" fill="#2E2F38"/>
<path d="M34.3715 47.32C32.4942 47.32 30.9795 46.8933 29.8275 46.04C28.6968 45.1867 27.8222 44.0027 27.2035 42.488L29.6995 41.176C30.0408 42.2853 30.5635 43.192 31.2675 43.896C31.9928 44.5787 33.0488 44.92 34.4355 44.92C35.8862 44.92 37.0275 44.5253 37.8595 43.736C38.7128 42.9253 39.1395 41.816 39.1395 40.408C39.1395 38.9147 38.7448 37.784 37.9555 37.016C37.1875 36.248 36.0888 35.864 34.6595 35.864C33.6355 35.864 32.7182 36.024 31.9075 36.344C31.0968 36.664 30.4462 37.1867 29.9555 37.912L27.7155 37.496L28.9635 25.88H40.8355V28.28H31.1395L30.3075 34.936L30.2435 35.224H30.3075C30.8195 34.6907 31.4702 34.264 32.2595 33.944C33.0702 33.624 34.0302 33.464 35.1395 33.464C36.4835 33.464 37.6462 33.752 38.6275 34.328C39.6302 34.8827 40.4088 35.672 40.9635 36.696C41.5182 37.72 41.7955 38.9147 41.7955 40.28C41.7955 41.7307 41.4755 42.9893 40.8355 44.056C40.2168 45.1013 39.3528 45.912 38.2435 46.488C37.1342 47.0427 35.8435 47.32 34.3715 47.32Z" fill="white"/>
</svg>
