<svg width="69" height="72" viewBox="0 0 69 72" fill="none" xmlns="http://www.w3.org/2000/svg">
<rect width="69" height="72" rx="24" fill="#2E2F38"/>
<path d="M34.9216 47V31.512C34.9216 31.1493 34.9216 30.7653 34.9216 30.36C34.943 29.9333 34.9643 29.496 34.9856 29.048C34.2603 29.752 33.4176 30.3707 32.4576 30.904C31.4976 31.416 30.5163 31.7893 29.5136 32.024L28.8416 29.688C29.2256 29.6453 29.7056 29.5067 30.2816 29.272C30.879 29.016 31.4976 28.7067 32.1376 28.344C32.799 27.96 33.407 27.5547 33.9616 27.128C34.5163 26.7013 34.943 26.2853 35.2416 25.88H37.4816V47H34.9216Z" fill="white"/>
</svg>
