<svg width="69" height="72" viewBox="0 0 69 72" fill="none" xmlns="http://www.w3.org/2000/svg">
<rect width="69" height="72" rx="24" fill="#2E2F38"/>
<path d="M35.1016 25.56C36.787 25.56 38.163 25.912 39.2296 26.616C40.2963 27.2987 41.1603 28.4293 41.8216 30.008L39.4536 31.128C39.1336 30.1467 38.611 29.3787 37.8856 28.824C37.1816 28.248 36.2003 27.96 34.9416 27.96C33.7256 27.96 32.691 28.3653 31.8376 29.176C30.9843 29.9653 30.3336 31.032 29.8856 32.376C29.459 33.72 29.2456 35.2347 29.2456 36.92V37.496H29.3736C29.6083 36.5787 30.035 35.8427 30.6536 35.288C31.2936 34.712 32.0083 34.296 32.7976 34.04C33.6083 33.7627 34.3976 33.624 35.1656 33.624C36.595 33.624 37.843 33.9013 38.9096 34.456C39.9763 35.0107 40.7976 35.8 41.3736 36.824C41.971 37.848 42.2696 39.064 42.2696 40.472C42.2696 42.5627 41.6083 44.2267 40.2856 45.464C38.9843 46.7013 37.2243 47.32 35.0056 47.32C33.235 47.32 31.7416 46.8507 30.5256 45.912C29.3096 44.9733 28.3923 43.6933 27.7736 42.072C27.155 40.4293 26.8456 38.552 26.8456 36.44C26.8456 34.072 27.2083 32.088 27.9336 30.488C28.659 28.8667 29.6403 27.64 30.8776 26.808C32.1363 25.976 33.5443 25.56 35.1016 25.56ZM34.9736 36.088C33.6083 36.088 32.499 36.4933 31.6456 37.304C30.7923 38.1147 30.3656 39.16 30.3656 40.44C30.3656 41.2507 30.5683 41.9973 30.9736 42.68C31.379 43.3413 31.923 43.8747 32.6056 44.28C33.3096 44.664 34.099 44.856 34.9736 44.856C36.4243 44.856 37.555 44.472 38.3656 43.704C39.1763 42.9147 39.5816 41.8267 39.5816 40.44C39.5816 39.096 39.1763 38.04 38.3656 37.272C37.555 36.4827 36.4243 36.088 34.9736 36.088Z" fill="white"/>
</svg>
