<svg width="69" height="72" viewBox="0 0 69 72" fill="none" xmlns="http://www.w3.org/2000/svg">
<rect width="69" height="72" rx="24" fill="#2E2F38"/>
<path d="M27.5399 47V44.92C29.6519 43.3627 31.4119 41.9973 32.8199 40.824C34.2492 39.6507 35.3905 38.584 36.2439 37.624C37.0972 36.664 37.7052 35.7573 38.0679 34.904C38.4305 34.0293 38.6119 33.1227 38.6119 32.184C38.6119 30.9253 38.2065 29.912 37.3959 29.144C36.6065 28.3547 35.5185 27.96 34.1319 27.96C32.6812 27.96 31.5185 28.44 30.6439 29.4C29.7692 30.3387 29.2572 31.5973 29.1079 33.176L26.8679 31.832C27.1452 29.9973 27.9025 28.4933 29.1399 27.32C30.3985 26.1467 32.0945 25.56 34.2279 25.56C35.6785 25.56 36.9265 25.848 37.9719 26.424C39.0385 26.9787 39.8599 27.7573 40.4359 28.76C41.0119 29.7413 41.2999 30.8827 41.2999 32.184C41.2999 33.5067 40.9799 34.808 40.3399 36.088C39.6999 37.3467 38.6439 38.6693 37.1719 40.056C35.6999 41.4427 33.7052 42.9787 31.1879 44.664V44.696C31.4225 44.6747 31.7425 44.664 32.1479 44.664C32.5745 44.6427 32.9905 44.632 33.3959 44.632C33.8225 44.6107 34.1425 44.6 34.3559 44.6H41.7479V47H27.5399Z" fill="white"/>
</svg>
