<svg width="69" height="72" viewBox="0 0 69 72" fill="none" xmlns="http://www.w3.org/2000/svg">
<rect width="69" height="72" rx="24" fill="#2E2F38"/>
<path d="M34.129 25.56C35.8997 25.56 37.393 26.0293 38.609 26.968C39.825 27.8853 40.7423 29.1653 41.361 30.808C41.9797 32.4293 42.289 34.3067 42.289 36.44C42.289 38.808 41.9797 40.8027 41.361 42.424C40.7423 44.024 39.825 45.24 38.609 46.072C37.4143 46.904 35.9317 47.32 34.161 47.32C32.4117 47.32 30.9077 46.9147 29.649 46.104C28.3903 45.2933 27.4517 44.1093 26.833 42.552L29.361 41.208C29.7023 42.3173 30.257 43.2133 31.025 43.896C31.8143 44.5787 32.8917 44.92 34.257 44.92C35.3663 44.92 36.2837 44.7067 37.009 44.28C37.7557 43.832 38.3423 43.2027 38.769 42.392C39.1957 41.56 39.4943 40.568 39.665 39.416C39.857 38.264 39.953 36.984 39.953 35.576C39.953 35.5333 39.953 35.4907 39.953 35.448C39.953 35.384 39.953 35.3307 39.953 35.288H39.825C39.569 36.248 39.121 37.0267 38.481 37.624C37.841 38.2 37.1157 38.616 36.305 38.872C35.5157 39.128 34.7263 39.256 33.937 39.256C32.5503 39.256 31.3237 38.9893 30.257 38.456C29.1903 37.9013 28.3583 37.1333 27.761 36.152C27.1637 35.1707 26.865 34.008 26.865 32.664C26.865 31.2133 27.153 29.9653 27.729 28.92C28.305 27.8533 29.137 27.032 30.225 26.456C31.313 25.8587 32.6143 25.56 34.129 25.56ZM34.161 28.024C32.6677 28.024 31.5263 28.44 30.737 29.272C29.9477 30.0827 29.553 31.224 29.553 32.696C29.553 33.9547 29.969 34.9573 30.801 35.704C31.633 36.4293 32.753 36.792 34.161 36.792C35.0783 36.792 35.8783 36.6107 36.561 36.248C37.265 35.864 37.809 35.352 38.193 34.712C38.577 34.0507 38.769 33.2933 38.769 32.44C38.769 31.544 38.577 30.7653 38.193 30.104C37.809 29.4427 37.265 28.9307 36.561 28.568C35.8783 28.2053 35.0783 28.024 34.161 28.024Z" fill="white"/>
</svg>
