<svg width="70" height="72" viewBox="0 0 70 72" fill="none" xmlns="http://www.w3.org/2000/svg">
<rect x="0.330017" width="69" height="72" rx="24" fill="#2E2F38"/>
<path fill-rule="evenodd" clip-rule="evenodd" d="M29.9158 27H30.33H46.33H47.33V28V44V45H46.33H30.33H29.9158L29.6229 44.7071L21.6229 36.7071L20.9158 36L21.6229 35.2929L29.6229 27.2929L29.9158 27ZM30.7442 29L23.7442 36L30.7442 43H45.33V29H30.7442ZM34.33 31.5858L35.0371 32.2929L37.33 34.5858L39.6229 32.2929L40.33 31.5858L41.7442 33L41.0371 33.7071L38.7442 36L41.0371 38.2929L41.7442 39L40.33 40.4142L39.6229 39.7071L37.33 37.4142L35.0371 39.7071L34.33 40.4142L32.9158 39L33.6229 38.2929L35.9158 36L33.6229 33.7071L32.9158 33L34.33 31.5858Z" fill="white"/>
</svg>
