<svg width="69" height="72" viewBox="0 0 69 72" fill="none" xmlns="http://www.w3.org/2000/svg">
<rect width="69" height="72" rx="24" fill="#2E2F38"/>
<path d="M34.4519 47.32C32.5745 47.32 30.9105 46.8827 29.4599 46.008C28.0305 45.112 27.0599 43.8853 26.5479 42.328L29.1079 41.016C29.4919 42.1893 30.0999 43.1387 30.9319 43.864C31.7852 44.568 33.0439 44.92 34.7079 44.92C36.0945 44.92 37.1612 44.5573 37.9079 43.832C38.6759 43.0853 39.0599 42.136 39.0599 40.984C39.0599 39.832 38.7292 38.9787 38.0679 38.424C37.4279 37.848 36.3505 37.56 34.8359 37.56C34.3665 37.56 33.8225 37.592 33.2039 37.656V35.096C33.3959 35.1173 33.5772 35.128 33.7479 35.128C33.9399 35.128 34.1105 35.128 34.2599 35.128C35.8172 35.128 36.9265 34.8293 37.5879 34.232C38.2492 33.6133 38.5799 32.6533 38.5799 31.352C38.5799 30.2427 38.2385 29.4 37.5559 28.824C36.8732 28.248 35.9025 27.96 34.6439 27.96C33.2999 27.96 32.2759 28.2587 31.5719 28.856C30.8679 29.432 30.3132 30.2213 29.9079 31.224L27.4759 30.072C27.9879 28.7493 28.8732 27.6613 30.1319 26.808C31.4119 25.9547 32.9372 25.528 34.7079 25.528C36.1799 25.528 37.3959 25.784 38.3559 26.296C39.3159 26.7867 40.0305 27.448 40.4999 28.28C40.9905 29.112 41.2359 30.0293 41.2359 31.032C41.2359 32.5467 40.8412 33.7627 40.0519 34.68C39.2625 35.576 38.3345 36.1093 37.2679 36.28V36.344C38.2065 36.3653 39.0065 36.6 39.6679 37.048C40.3292 37.4747 40.8305 38.04 41.1719 38.744C41.5345 39.4267 41.7159 40.1627 41.7159 40.952C41.7159 42.1893 41.4065 43.288 40.7879 44.248C40.1905 45.208 39.3479 45.9653 38.2599 46.52C37.1719 47.0533 35.9025 47.32 34.4519 47.32Z" fill="white"/>
</svg>
