<svg width="69" height="72" viewBox="0 0 69 72" fill="none" xmlns="http://www.w3.org/2000/svg">
<rect width="69" height="72" rx="24" fill="#2E2F38"/>
<path d="M34.4966 25.592C36.5233 25.592 38.1446 26.0933 39.3606 27.096C40.598 28.0773 41.2166 29.4213 41.2166 31.128C41.2166 32.216 40.95 33.176 40.4166 34.008C39.9046 34.8187 39.1793 35.4373 38.2406 35.864V35.896C39.4353 36.344 40.3846 37.0267 41.0886 37.944C41.814 38.8613 42.1766 39.9813 42.1766 41.304C42.1766 42.5413 41.8566 43.608 41.2166 44.504C40.5766 45.4 39.6806 46.0933 38.5286 46.584C37.398 47.0747 36.054 47.32 34.4966 47.32C32.9606 47.32 31.6166 47.0747 30.4646 46.584C29.3126 46.0933 28.4166 45.4 27.7766 44.504C27.1366 43.608 26.8166 42.5413 26.8166 41.304C26.8166 40.0027 27.1686 38.8933 27.8726 37.976C28.5766 37.0373 29.5473 36.344 30.7846 35.896V35.864C29.8673 35.4587 29.1313 34.8507 28.5766 34.04C28.0433 33.208 27.7766 32.2373 27.7766 31.128C27.7766 29.4213 28.3846 28.0773 29.6006 27.096C30.838 26.0933 32.47 25.592 34.4966 25.592ZM34.4966 27.992C33.2593 27.992 32.2673 28.2907 31.5206 28.888C30.7953 29.4853 30.4326 30.3173 30.4326 31.384C30.4326 32.4293 30.806 33.2507 31.5526 33.848C32.2993 34.4453 33.2806 34.744 34.4966 34.744C35.7126 34.744 36.694 34.4453 37.4406 33.848C38.1873 33.2507 38.5606 32.4293 38.5606 31.384C38.5606 30.3173 38.198 29.4853 37.4726 28.888C36.7473 28.2907 35.7553 27.992 34.4966 27.992ZM34.4966 44.92C36.054 44.92 37.2806 44.5787 38.1766 43.896C39.0726 43.192 39.5206 42.2427 39.5206 41.048C39.5206 39.832 39.062 38.8827 38.1446 38.2C37.2273 37.496 36.0113 37.144 34.4966 37.144C33.0033 37.144 31.7873 37.496 30.8486 38.2C29.9313 38.8827 29.4726 39.832 29.4726 41.048C29.4726 42.2427 29.9206 43.192 30.8166 43.896C31.734 44.5787 32.9606 44.92 34.4966 44.92Z" fill="white"/>
</svg>
