<svg width="70" height="72" viewBox="0 0 70 72" fill="none" xmlns="http://www.w3.org/2000/svg">
<rect x="0.330017" width="69.67" height="72" rx="24" fill="#4B5EFC"/>
<path d="M35.3378 28.568C35.9564 28.568 36.4578 28.76 36.8418 29.144C37.2258 29.528 37.4178 30.0293 37.4178 30.648C37.4178 31.2667 37.2258 31.768 36.8418 32.152C36.4578 32.536 35.9564 32.728 35.3378 32.728C34.7191 32.728 34.2178 32.536 33.8338 32.152C33.4498 31.768 33.2578 31.2667 33.2578 30.648C33.2578 30.0293 33.4498 29.528 33.8338 29.144C34.2178 28.76 34.7191 28.568 35.3378 28.568ZM43.1138 35.672V38.072H27.5618V35.672H43.1138ZM35.3378 41.08C35.9564 41.08 36.4578 41.272 36.8418 41.656C37.2258 42.04 37.4178 42.5413 37.4178 43.16C37.4178 43.7787 37.2258 44.28 36.8418 44.664C36.4578 45.048 35.9564 45.24 35.3378 45.24C34.7191 45.24 34.2178 45.048 33.8338 44.664C33.4498 44.28 33.2578 43.7787 33.2578 43.16C33.2578 42.5413 33.4498 42.04 33.8338 41.656C34.2178 41.272 34.7191 41.08 35.3378 41.08Z" fill="white"/>
</svg>
